<svg xmlns="http://www.w3.org/2000/svg" version="1.1" xmlns:xlink="http://www.w3.org/1999/xlink" xmlns:svgjs="http://svgjs.dev/svgjs" width="1500" height="356" viewBox="0 0 1500 356"><g transform="matrix(1,0,0,1,-0.9090909090909918,-0.8663882005327537)"><svg viewBox="0 0 396 94" data-background-color="#ffffff" preserveAspectRatio="xMidYMid meet" height="356" width="1500" xmlns="http://www.w3.org/2000/svg" xmlns:xlink="http://www.w3.org/1999/xlink"><g id="tight-bounds" transform="matrix(1,0,0,1,0.2400000000000091,0.2287654237361778)"><svg viewBox="0 0 395.52 93.54226549853827" height="93.54226549853827" width="395.52"><g><svg viewBox="0 0 552.2588692390113 130.61171564087311" height="93.54226549853827" width="395.52"><g transform="matrix(1,0,0,1,156.7388692390114,37.637698416115185)"><svg viewBox="0 0 395.52 55.336318808642744" height="55.336318808642744" width="395.52"><g id="textblocktransform"><svg viewBox="0 0 395.52 55.336318808642744" height="55.336318808642744" width="395.52" id="textblock"><g><svg viewBox="0 0 395.52 55.336318808642744" height="55.336318808642744" width="395.52"><g transform="matrix(1,0,0,1,0,0)"><svg width="395.52" viewBox="3.7 -36 261.58095057034217 36.6" height="55.336318808642744" data-palette-color="#1d597d"><path d="M7.9 0L3.7 0 3.7-35 15-35Q19.1-35 21.7-33.65 24.3-32.3 25.55-29.95 26.8-27.6 26.8-24.75L26.8-24.75Q26.8-21.45 25.03-18.8 23.25-16.15 19.5-15.05L19.5-15.05 27.15 0 22.2 0 15.1-14.45 14.8-14.45 7.9-14.45 7.9 0ZM7.9-31.45L7.9-17.75 14.7-17.75Q18.75-17.75 20.6-19.7 22.45-21.65 22.45-24.7L22.45-24.7Q22.45-27.8 20.63-29.63 18.8-31.45 14.65-31.45L14.65-31.45 7.9-31.45ZM43.7 0.6L43.7 0.6Q40.1 0.6 37.37-0.73 34.65-2.05 33.12-4.42 31.6-6.8 31.6-10.05L31.6-10.05Q31.6-13.6 33.67-16.38 35.75-19.15 39.7-20.75L39.7-20.75Q38-22.6 37.25-24.28 36.5-25.95 36.5-27.9L36.5-27.9Q36.5-31.25 38.87-33.43 41.25-35.6 45.4-35.6L45.4-35.6Q48.1-35.6 50.1-34.58 52.1-33.55 53.2-31.75 54.3-29.95 54.2-27.65L54.2-27.65 50.05-27.65Q50.1-29.9 48.67-31.05 47.25-32.2 45.4-32.2L45.4-32.2Q43.15-32.2 41.9-31 40.65-29.8 40.65-27.95L40.65-27.95Q40.65-26.35 41.52-24.85 42.4-23.35 44.15-21.5L44.15-21.5 55.2-10.35Q56.65-12.45 58.35-15.4L58.35-15.4 59.9-18.1 64.35-18.1 62.15-14.2Q59.95-10.25 57.95-7.6L57.95-7.6 65.5 0 60.2 0 55.55-4.7Q52.9-1.85 50.05-0.63 47.2 0.6 43.7 0.6ZM35.8-10.2L35.8-10.2Q35.8-7.1 38-5.05 40.2-3 43.75-3L43.75-3Q46.4-3 48.57-4.03 50.75-5.05 52.85-7.4L52.85-7.4 42.25-18.15Q38.95-16.85 37.37-14.85 35.8-12.85 35.8-10.2ZM80.7 0L69.95 0 69.95-35 80.7-35Q89.95-35 94.32-30.3 98.7-25.6 98.7-17.4L98.7-17.4Q98.7-9.35 94.32-4.67 89.95 0 80.7 0L80.7 0ZM74.15-31.5L74.15-3.5 80.59-3.5Q85.7-3.5 88.72-5.18 91.75-6.85 93.05-9.98 94.34-13.1 94.34-17.4L94.34-17.4Q94.34-21.8 93.05-24.95 91.75-28.1 88.72-29.8 85.7-31.5 80.59-31.5L80.59-31.5 74.15-31.5ZM120.19 0L115.79 0 128.69-35 133.14-35 145.99 0 141.54 0 138.34-9 123.44-9 120.19 0ZM130.89-29.7L124.69-12.4 137.09-12.4 130.89-29.7ZM160.74 0.6L160.74 0.6Q157.19 0.6 154.44-1.03 151.69-2.65 150.11-5.55 148.54-8.45 148.54-12.4L148.54-12.4Q148.54-16.3 150.09-19.23 151.64-22.15 154.41-23.78 157.19-25.4 160.84-25.4L160.84-25.4Q164.44-25.4 167.06-23.78 169.69-22.15 171.09-19.5 172.49-16.85 172.49-13.8L172.49-13.8Q172.49-13.25 172.46-12.7 172.44-12.15 172.44-11.45L172.44-11.45 152.69-11.45Q152.84-8.6 154.01-6.73 155.19-4.85 156.96-3.9 158.74-2.95 160.74-2.95L160.74-2.95Q163.34-2.95 165.09-4.15 166.84-5.35 167.64-7.4L167.64-7.4 171.79-7.4Q170.79-3.95 167.96-1.68 165.14 0.6 160.74 0.6ZM160.74-21.85L160.74-21.85Q157.74-21.85 155.41-20.03 153.09-18.2 152.74-14.7L152.74-14.7 168.34-14.7Q168.19-18.05 166.04-19.95 163.89-21.85 160.74-21.85ZM182.24 0L178.04 0 178.04-24.8 181.84-24.8 182.19-20.05Q183.34-22.5 185.69-23.95 188.04-25.4 191.49-25.4L191.49-25.4 191.49-21 190.34-21Q188.14-21 186.29-20.23 184.44-19.45 183.34-17.6 182.24-15.75 182.24-12.5L182.24-12.5 182.24 0ZM198.73-30.3L198.73-30.3Q197.48-30.3 196.66-31.13 195.83-31.95 195.83-33.2L195.83-33.2Q195.83-34.4 196.66-35.2 197.48-36 198.73-36L198.73-36Q199.93-36 200.78-35.2 201.63-34.4 201.63-33.2L201.63-33.2Q201.63-31.95 200.78-31.13 199.93-30.3 198.73-30.3ZM200.83 0L196.63 0 196.63-24.8 200.83-24.8 200.83 0ZM216.38 0.6L216.38 0.6Q213.28 0.6 211.23-0.45 209.18-1.5 208.18-3.25 207.18-5 207.18-7.05L207.18-7.05Q207.18-10.85 210.08-12.9 212.98-14.95 217.98-14.95L217.98-14.95 224.68-14.95 224.68-15.25Q224.68-18.5 222.98-20.18 221.28-21.85 218.43-21.85L218.43-21.85Q215.98-21.85 214.21-20.63 212.43-19.4 211.98-17.05L211.98-17.05 207.68-17.05Q207.93-19.75 209.51-21.6 211.08-23.45 213.43-24.43 215.78-25.4 218.43-25.4L218.43-25.4Q223.63-25.4 226.26-22.63 228.88-19.85 228.88-15.25L228.88-15.25 228.88 0 225.13 0 224.88-4.45Q223.83-2.35 221.81-0.88 219.78 0.6 216.38 0.6ZM217.03-2.95L217.03-2.95Q219.43-2.95 221.16-4.2 222.88-5.45 223.78-7.45 224.68-9.45 224.68-11.65L224.68-11.65 224.68-11.7 218.33-11.7Q214.63-11.7 213.11-10.43 211.58-9.15 211.58-7.25L211.58-7.25Q211.58-5.3 213.01-4.13 214.43-2.95 217.03-2.95ZM239.38 0L235.18 0 235.18-36 239.38-36 239.38 0ZM255.78 0.6L255.78 0.6Q251.33 0.6 248.38-1.65 245.43-3.9 244.93-7.75L244.93-7.75 249.23-7.75Q249.63-5.8 251.3-4.38 252.98-2.95 255.83-2.95L255.83-2.95Q258.48-2.95 259.73-4.08 260.98-5.2 260.98-6.75L260.98-6.75Q260.98-9 259.35-9.75 257.73-10.5 254.78-11.1L254.78-11.1Q252.78-11.5 250.78-12.25 248.78-13 247.43-14.38 246.08-15.75 246.08-18L246.08-18Q246.08-21.25 248.5-23.33 250.93-25.4 255.08-25.4L255.08-25.4Q259.03-25.4 261.55-23.43 264.08-21.45 264.48-17.8L264.48-17.8 260.33-17.8Q260.08-19.7 258.7-20.78 257.33-21.85 255.03-21.85L255.03-21.85Q252.78-21.85 251.55-20.9 250.33-19.95 250.33-18.4L250.33-18.4Q250.33-16.9 251.9-16.05 253.48-15.2 256.18-14.6L256.18-14.6Q258.48-14.1 260.55-13.38 262.63-12.65 263.95-11.23 265.28-9.8 265.28-7.1L265.28-7.1Q265.33-3.75 262.75-1.58 260.18 0.6 255.78 0.6Z" opacity="1" transform="matrix(1,0,0,1,0,0)" fill="#1d597d" class="wordmark-text-0" data-fill-palette-color="primary" id="text-0"></path></svg></g></svg></g></svg></g></svg></g><g><svg viewBox="0 0 130.61171564087311 130.61171564087311" height="130.61171564087311" width="130.61171564087311"><g><svg></svg></g><g id="icon-0"><svg viewBox="0 0 130.61171564087311 130.61171564087311" height="130.61171564087311" width="130.61171564087311"><g><path d="M0 65.306c0-36.067 29.238-65.306 65.306-65.306 36.067 0 65.306 29.238 65.306 65.306 0 36.067-29.238 65.306-65.306 65.306-36.067 0-65.306-29.238-65.306-65.306zM65.306 125.621c33.311 0 60.316-27.004 60.315-60.315 0-33.311-27.004-60.316-60.315-60.316-33.311 0-60.316 27.004-60.316 60.316 0 33.311 27.004 60.316 60.316 60.315z" data-fill-palette-color="accent" fill="#83b6b9" stroke="transparent"></path></g><g transform="matrix(1,0,0,1,31.298261823061964,31.298261823061964)"><svg viewBox="0 0 68.01519199474919 68.01519199474919" height="68.01519199474919" width="68.01519199474919"><g><svg xmlns="http://www.w3.org/2000/svg" xmlns:xlink="http://www.w3.org/1999/xlink" version="1.1" x="0" y="0" viewBox="5.24 5.24 89.52000000000001 89.52000000000001" enable-background="new 0 0 100 100" xml:space="preserve" height="68.01519199474919" width="68.01519199474919" class="icon-dxe-0" data-fill-palette-color="accent" id="dxe-0"><g fill="#83b6b9" data-fill-palette-color="accent"><path d="M81.382 50C89.288 46.202 94.76 38.115 94.76 28.774 94.76 15.798 84.203 5.24 71.226 5.24 61.885 5.24 53.798 10.712 50 18.618 46.202 10.712 38.115 5.24 28.774 5.24 15.797 5.24 5.24 15.797 5.24 28.774 5.24 38.115 10.712 46.202 18.618 50 10.712 53.798 5.24 61.885 5.24 71.226 5.24 84.202 15.797 94.76 28.774 94.76 38.115 94.76 46.202 89.288 50 81.382 53.798 89.288 61.885 94.76 71.226 94.76 84.202 94.76 94.76 84.203 94.76 71.226 94.76 61.885 89.288 53.798 81.382 50M71.226 9.855C81.658 9.855 90.145 18.342 90.145 28.774S81.658 47.693 71.226 47.693 52.307 39.206 52.307 28.774 60.794 9.855 71.226 9.855M9.855 28.774C9.855 18.342 18.342 9.855 28.774 9.855S47.693 18.342 47.693 28.774 39.206 47.693 28.774 47.693 9.855 39.206 9.855 28.774M28.774 90.145C18.342 90.145 9.855 81.658 9.855 71.226S18.342 52.307 28.774 52.307 47.693 60.794 47.693 71.226 39.206 90.145 28.774 90.145M71.226 90.145C60.794 90.145 52.307 81.658 52.307 71.226S60.794 52.307 71.226 52.307 90.145 60.794 90.145 71.226 81.658 90.145 71.226 90.145" fill="#83b6b9" data-fill-palette-color="accent"></path><path d="M43.034 35.602A2.307 2.307 0 0 0 41.95 32.524L33.543 28.499C33.397 25.984 31.325 23.976 28.773 23.976 27.733 23.976 26.775 24.317 25.989 24.882L17.591 20.861A2.308 2.308 0 0 0 15.597 25.023L24.003 29.048C24.148 31.565 26.221 33.572 28.774 33.572A4.76 4.76 0 0 0 31.559 32.665L39.957 36.686A2.304 2.304 0 0 0 43.034 35.602" fill="#83b6b9" data-fill-palette-color="accent"></path><path d="M64.851 43.242A2.304 2.304 0 0 0 67.893 42.06L71.653 33.528C74.096 33.308 76.024 31.273 76.024 28.773A4.76 4.76 0 0 0 75.025 25.876L78.784 17.346A2.308 2.308 0 0 0 74.56 15.486L70.8 24.019C68.356 24.239 66.428 26.274 66.428 28.773 66.428 29.866 66.81 30.863 67.428 31.671L63.67 40.2A2.31 2.31 0 0 0 64.851 43.242" fill="#83b6b9" data-fill-palette-color="accent"></path><path d="M32.681 73.992C33.237 73.209 33.571 72.258 33.571 71.227 33.571 68.667 31.549 66.587 29.021 66.455L24.951 58.072A2.308 2.308 0 0 0 20.8 60.087L24.866 68.462A4.76 4.76 0 0 0 23.975 71.227C23.975 73.788 25.997 75.868 28.526 76L32.596 84.382A2.307 2.307 0 1 0 36.747 82.367z" fill="#83b6b9" data-fill-palette-color="accent"></path><path d="M82.343 63.221L73.98 67.311A4.76 4.76 0 0 0 71.226 66.429C68.66 66.429 66.576 68.458 66.451 70.993L58.081 75.087A2.308 2.308 0 1 0 60.109 79.233L68.471 75.144A4.76 4.76 0 0 0 71.226 76.026C73.791 76.026 75.875 73.997 76 71.462L84.371 67.368A2.308 2.308 0 0 0 82.343 63.221" fill="#83b6b9" data-fill-palette-color="accent"></path></g></svg></g></svg></g></svg></g></svg></g></svg></g><defs></defs></svg><rect width="395.52" height="93.54226549853827" fill="none" stroke="none" visibility="hidden"></rect></g></svg></g></svg>